<svg width="103" height="110" viewBox="0 0 103 110" fill="none" xmlns="http://www.w3.org/2000/svg">
<g clip-path="url(#clip0)">
<path d="M85.5048 6.85352C86.8806 6.85352 87.9999 5.96414 87.9999 4.87109V1.98242C87.9999 0.889371 86.8806 0 85.5048 0H17.4951C16.1193 0 14.9999 0.889371 14.9999 1.98242V4.87109C14.9962 5.98657 16.1816 6.90041 17.5934 6.85352V33.5939C16.0927 33.9647 14.9999 35.0784 14.9999 36.3913C14.9999 37.7041 16.0927 38.8179 17.5934 39.1886V51.1465H17.4951C16.1193 51.1465 14.9999 52.0359 14.9999 53.1289V56.0176C14.9999 57.1106 16.1193 58 17.4951 58H85.5048C86.8806 58 87.9999 57.1106 87.9999 56.0176V53.1289C87.9999 52.0359 86.8806 51.1465 85.5048 51.1465H85.4064V39.1886C86.9072 38.8179 87.9999 37.7041 87.9999 36.3913C87.9999 35.0784 86.9072 33.9647 85.4064 33.5939V6.85352H85.5048ZM17.1386 36.3913C17.1386 35.7133 17.8328 35.1617 18.6862 35.1617H25.5918C26.445 35.1617 27.1393 35.7133 27.1393 36.3913C27.1393 37.0693 26.4451 37.6208 25.5918 37.6208H18.6862C17.8328 37.6208 17.1386 37.0693 17.1386 36.3913ZM36.1101 12.0135C37.3362 12.0135 38.5487 11.8102 39.6721 11.4217C40.019 11.9283 40.4122 12.4109 40.8484 12.8647C39.3681 13.4211 37.752 13.7127 36.1101 13.7127C33.3984 13.7127 30.7704 12.9154 28.71 11.4678C26.9772 10.2505 25.7322 8.63781 25.1229 6.85352H27.3549C28.6445 9.9231 32.1357 12.0135 36.1101 12.0135ZM29.6464 6.85352H37.9858C38.0835 7.90726 38.3621 8.92022 38.795 9.87201C37.9466 10.1625 37.0331 10.3143 36.1101 10.3143C33.301 10.3143 30.8025 8.93517 29.6464 6.85352ZM51.4999 13.7127C56.2692 13.7127 60.2078 10.7058 60.7185 6.85352H62.866C62.3963 11.527 57.3278 15.2897 51.4999 15.346C46.1225 15.3979 40.7608 12.5652 40.134 6.85352H42.2816C42.7921 10.7058 46.7307 13.7127 51.4999 13.7127ZM44.4352 6.85352H58.5647C58.0728 9.76609 55.0929 12.0135 51.4999 12.0135C47.907 12.0135 44.9271 9.76609 44.4352 6.85352ZM66.8898 12.0135C70.8641 12.0135 74.3554 9.9231 75.645 6.85352H77.877C77.2675 8.63781 76.0225 10.2505 74.2901 11.4678C72.2297 12.9154 69.6015 13.7127 66.89 13.7127C65.2472 13.7127 63.6309 13.4212 62.1515 12.8649C62.5878 12.411 62.9811 11.9283 63.3281 11.4216C64.4522 11.8101 65.6647 12.0135 66.8898 12.0135ZM64.2051 9.87178C64.638 8.9201 64.9164 7.90726 65.0141 6.85352H73.3535C72.1974 8.93517 69.6989 10.3143 66.8898 10.3143C65.9676 10.3143 65.0541 10.1623 64.2051 9.87178ZM72.5513 26.3443C70.0774 22.9553 68.4656 19.2731 67.7491 15.3868C70.4444 15.2463 73.0307 14.4499 75.1679 13.0981C74.7647 16.4091 74.9948 19.7095 75.8616 22.9408C76.8632 26.6772 78.6742 30.2093 81.252 33.4624H79.7244C76.89 31.3754 74.4771 28.9828 72.5513 26.3443ZM76.7293 33.5131C76.066 33.6117 75.465 33.8516 74.9774 34.1924C70.831 32.1673 67.7494 28.8609 66.2584 27.0354C63.2137 23.3086 61.2232 19.0666 60.3308 14.423C60.4459 14.3419 60.5589 14.2589 60.6706 14.1748C62.1994 14.8223 63.8677 15.2241 65.5842 15.3597C66.3138 19.5611 68.0322 23.5403 70.7012 27.1968C72.3751 29.4902 74.3976 31.6073 76.7293 33.5131ZM77.9532 22.5868C76.9383 18.8032 76.8441 14.918 77.6684 11.0356C78.8192 9.79826 79.6439 8.3725 80.0803 6.85352H83.2676V32.8107C80.7158 29.6569 78.9283 26.2239 77.9532 22.5868ZM27.8318 13.0981C29.9691 14.4502 32.5553 15.2464 35.2507 15.3869C34.5341 19.2731 32.9224 22.9554 30.4486 26.3445C28.5229 28.9829 26.1099 31.3755 23.2753 33.4625H21.7477C24.3256 30.2094 26.1366 26.6773 27.1382 22.9409C28.0049 19.7098 28.2349 16.4094 27.8318 13.0981ZM25.3314 11.0356C26.1554 14.9186 26.0613 18.8039 25.0467 22.5869C24.0716 26.2239 22.2841 29.6569 19.7323 32.8107V6.85352H22.9196C23.356 8.3725 24.1807 9.79815 25.3314 11.0356ZM22.559 39.32H23.9827C25.3361 41.385 26.6436 43.4985 27.872 45.6109C28.7958 47.2007 29.9232 49.3373 30.8542 51.1465H26.2717C25.996 49.8552 25.6749 48.5407 25.3088 47.2254C24.5657 44.5638 23.6422 41.91 22.559 39.32ZM24.1033 51.1465H19.7321V39.32H20.3C21.4587 42.0245 22.442 44.804 23.2206 47.5929C23.5522 48.7837 23.8472 49.9745 24.1033 51.1465ZM85.5048 52.8457C85.7014 52.8457 85.8613 52.9728 85.8613 53.1289V56.0176C85.8613 56.1737 85.7014 56.3008 85.5048 56.3008H17.4951C17.2984 56.3008 17.1386 56.1737 17.1386 56.0176V53.1289C17.1386 52.9728 17.2984 52.8457 17.4951 52.8457H58.7247C59.3154 52.8457 59.794 52.4653 59.794 51.9961C59.794 51.5269 59.3154 51.1465 58.7247 51.1465H33.1634C32.1705 49.2037 30.866 46.7097 29.8135 44.8985C28.7138 43.0075 27.5514 41.1155 26.3497 39.2575C28.0198 38.9789 29.2777 37.7998 29.2777 36.3913C29.2777 36.1298 29.2338 35.8764 29.1524 35.635C33.6517 33.4337 36.946 29.9061 38.5353 27.9604C39.4655 26.8217 40.3148 25.6186 41.0598 24.3844C41.3152 23.9613 41.0905 23.4539 40.5579 23.251C40.0253 23.0482 39.3867 23.2266 39.1313 23.6497C38.426 24.8184 37.6218 25.9576 36.7413 27.0355C35.2496 28.8615 32.1668 32.1694 28.0222 34.1925C27.5347 33.8518 26.9336 33.6119 26.2703 33.5132C28.602 31.6073 30.6244 29.4903 32.2984 27.1969C34.9674 23.5403 36.6858 19.5611 37.4154 15.3597C39.1312 15.2241 40.7995 14.8222 42.3289 14.1747C42.4408 14.2591 42.5542 14.3421 42.6695 14.4234C42.2961 16.3626 41.7232 18.259 40.9593 20.0663C40.7712 20.5112 41.0726 20.9928 41.6325 21.1422C42.1783 21.2879 42.7963 21.0576 42.9866 20.6073C43.6735 18.9825 44.2126 17.2899 44.6003 15.5607C46.6226 16.545 48.9819 17.1112 51.4997 17.1112C54.0177 17.1112 56.377 16.545 58.3994 15.5605C59.413 20.1011 61.4472 24.2676 64.4641 27.9605C66.053 29.9057 69.3459 33.4318 73.8472 35.635C73.7659 35.8764 73.7219 36.1298 73.7219 36.3914C73.7219 37.7999 74.9799 38.9791 76.6499 39.2576C75.4482 41.1157 74.2858 43.0076 73.1859 44.8988C72.1336 46.7098 70.8293 49.2038 69.8362 51.1466H63.7146C63.1239 51.1466 62.6453 51.527 62.6453 51.9962C62.6453 52.4654 63.1239 52.8458 63.7146 52.8458H85.5048V52.8457ZM77.691 47.2258C77.3248 48.5407 77.0039 49.8552 76.7281 51.1465H72.1457C73.0767 49.3372 74.2041 47.2007 75.1277 45.6111C76.3562 43.4986 77.6636 41.385 79.0172 39.32H80.4409C79.3577 41.9101 78.4342 44.5638 77.691 47.2258ZM82.6999 39.32H83.2678V51.1465H78.8968C79.1528 49.9745 79.4477 48.7838 79.7792 47.5933C80.5579 44.8041 81.5412 42.0245 82.6999 39.32ZM85.8613 36.3913C85.8613 37.0693 85.1671 37.6208 84.3137 37.6208H77.4081C76.5549 37.6208 75.8606 37.0693 75.8606 36.3913C75.8606 35.7133 76.5548 35.1617 77.4081 35.1617H84.3137C85.1671 35.1617 85.8613 35.7133 85.8613 36.3913ZM17.4951 5.1543C17.2984 5.1543 17.1386 5.0272 17.1386 4.87109V1.98242C17.1386 1.82632 17.2984 1.69922 17.4951 1.69922H85.5048C85.7014 1.69922 85.8613 1.82632 85.8613 1.98242V4.87109C85.8613 5.0272 85.7014 5.1543 85.5048 5.1543H17.4951Z" fill="#543838"/>
</g>
<path d="M27.3874 64.3V79H9.36941V64.3H10.9024V77.656H17.6224V64.3H19.1554V77.656H25.8544V64.3H27.3874ZM42.9012 69.277H38.7222V79H37.2312V69.277H33.0522V67.954H42.9012V69.277ZM52.2512 79.105C51.1872 79.105 50.2282 78.867 49.3742 78.391C48.5202 77.901 47.8482 77.229 47.3582 76.375C46.8682 75.521 46.6232 74.555 46.6232 73.477C46.6232 72.399 46.8682 71.433 47.3582 70.579C47.8482 69.725 48.5202 69.06 49.3742 68.584C50.2282 68.108 51.1872 67.87 52.2512 67.87C53.3152 67.87 54.2742 68.108 55.1282 68.584C55.9822 69.06 56.6472 69.725 57.1232 70.579C57.6132 71.433 57.8582 72.399 57.8582 73.477C57.8582 74.555 57.6132 75.521 57.1232 76.375C56.6472 77.229 55.9822 77.901 55.1282 78.391C54.2742 78.867 53.3152 79.105 52.2512 79.105ZM52.2512 77.782C53.0352 77.782 53.7352 77.607 54.3512 77.257C54.9812 76.893 55.4712 76.382 55.8212 75.724C56.1712 75.066 56.3462 74.317 56.3462 73.477C56.3462 72.637 56.1712 71.888 55.8212 71.23C55.4712 70.572 54.9812 70.068 54.3512 69.718C53.7352 69.354 53.0352 69.172 52.2512 69.172C51.4672 69.172 50.7602 69.354 50.1302 69.718C49.5142 70.068 49.0242 70.572 48.6602 71.23C48.3102 71.888 48.1352 72.637 48.1352 73.477C48.1352 74.317 48.3102 75.066 48.6602 75.724C49.0242 76.382 49.5142 76.893 50.1302 77.257C50.7602 77.607 51.4672 77.782 52.2512 77.782ZM69.8858 67.87C70.9218 67.87 71.8598 68.108 72.6998 68.584C73.5398 69.046 74.1978 69.704 74.6738 70.558C75.1498 71.412 75.3878 72.385 75.3878 73.477C75.3878 74.583 75.1498 75.563 74.6738 76.417C74.1978 77.271 73.5398 77.936 72.6998 78.412C71.8738 78.874 70.9358 79.105 69.8858 79.105C68.9898 79.105 68.1778 78.923 67.4498 78.559C66.7358 78.181 66.1478 77.635 65.6858 76.921V83.074H64.1948V67.954H65.6228V70.138C66.0708 69.41 66.6588 68.85 67.3868 68.458C68.1288 68.066 68.9618 67.87 69.8858 67.87ZM69.7808 77.782C70.5508 77.782 71.2508 77.607 71.8808 77.257C72.5108 76.893 73.0008 76.382 73.3508 75.724C73.7148 75.066 73.8968 74.317 73.8968 73.477C73.8968 72.637 73.7148 71.895 73.3508 71.251C73.0008 70.593 72.5108 70.082 71.8808 69.718C71.2508 69.354 70.5508 69.172 69.7808 69.172C68.9968 69.172 68.2898 69.354 67.6598 69.718C67.0438 70.082 66.5538 70.593 66.1898 71.251C65.8398 71.895 65.6648 72.637 65.6648 73.477C65.6648 74.317 65.8398 75.066 66.1898 75.724C66.5538 76.382 67.0438 76.893 67.6598 77.257C68.2898 77.607 68.9968 77.782 69.7808 77.782ZM86.3823 71.86C87.7683 71.874 88.8253 72.182 89.5533 72.784C90.2813 73.386 90.6453 74.254 90.6453 75.388C90.6453 76.564 90.2533 77.467 89.4693 78.097C88.6853 78.727 87.5653 79.035 86.1093 79.021L81.7413 79V67.954H83.2323V71.818L86.3823 71.86ZM92.4933 67.954H93.9843V79H92.4933V67.954ZM86.0253 77.887C87.0473 77.901 87.8173 77.698 88.3353 77.278C88.8673 76.844 89.1333 76.214 89.1333 75.388C89.1333 74.576 88.8743 73.974 88.3563 73.582C87.8383 73.19 87.0613 72.987 86.0253 72.973L83.2323 72.931V77.845L86.0253 77.887ZM17.9345 90.3V105H16.4435V93.24L10.6685 103.131H9.93345L4.15845 93.303V105H2.66745V90.3H3.94845L10.3325 101.199L16.6535 90.3H17.9345ZM30.2382 105.105C29.1742 105.105 28.2152 104.867 27.3612 104.391C26.5072 103.901 25.8352 103.229 25.3452 102.375C24.8552 101.521 24.6102 100.555 24.6102 99.477C24.6102 98.399 24.8552 97.433 25.3452 96.579C25.8352 95.725 26.5072 95.06 27.3612 94.584C28.2152 94.108 29.1742 93.87 30.2382 93.87C31.3022 93.87 32.2612 94.108 33.1152 94.584C33.9692 95.06 34.6342 95.725 35.1102 96.579C35.6002 97.433 35.8452 98.399 35.8452 99.477C35.8452 100.555 35.6002 101.521 35.1102 102.375C34.6342 103.229 33.9692 103.901 33.1152 104.391C32.2612 104.867 31.3022 105.105 30.2382 105.105ZM30.2382 103.782C31.0222 103.782 31.7222 103.607 32.3382 103.257C32.9682 102.893 33.4582 102.382 33.8082 101.724C34.1582 101.066 34.3332 100.317 34.3332 99.477C34.3332 98.637 34.1582 97.888 33.8082 97.23C33.4582 96.572 32.9682 96.068 32.3382 95.718C31.7222 95.354 31.0222 95.172 30.2382 95.172C29.4542 95.172 28.7472 95.354 28.1172 95.718C27.5012 96.068 27.0112 96.572 26.6472 97.23C26.2972 97.888 26.1222 98.637 26.1222 99.477C26.1222 100.317 26.2972 101.066 26.6472 101.724C27.0112 102.382 27.5012 102.893 28.1172 103.257C28.7472 103.607 29.4542 103.782 30.2382 103.782ZM46.8017 105.105C45.7097 105.105 44.7297 104.867 43.8617 104.391C43.0077 103.915 42.3357 103.25 41.8457 102.396C41.3557 101.528 41.1107 100.555 41.1107 99.477C41.1107 98.399 41.3557 97.433 41.8457 96.579C42.3357 95.725 43.0077 95.06 43.8617 94.584C44.7297 94.108 45.7097 93.87 46.8017 93.87C47.7537 93.87 48.6007 94.059 49.3427 94.437C50.0987 94.801 50.6937 95.34 51.1277 96.054L50.0147 96.81C49.6507 96.264 49.1887 95.858 48.6287 95.592C48.0687 95.312 47.4597 95.172 46.8017 95.172C46.0037 95.172 45.2827 95.354 44.6387 95.718C44.0087 96.068 43.5117 96.572 43.1477 97.23C42.7977 97.888 42.6227 98.637 42.6227 99.477C42.6227 100.331 42.7977 101.087 43.1477 101.745C43.5117 102.389 44.0087 102.893 44.6387 103.257C45.2827 103.607 46.0037 103.782 46.8017 103.782C47.4597 103.782 48.0687 103.649 48.6287 103.383C49.1887 103.117 49.6507 102.711 50.0147 102.165L51.1277 102.921C50.6937 103.635 50.0987 104.181 49.3427 104.559C48.5867 104.923 47.7397 105.105 46.8017 105.105ZM61.1758 100.086H58.6558V105H57.1648V93.954H58.6558V98.805H61.1968L65.0818 93.954H66.6988L62.3518 99.309L67.0138 105H65.2498L61.1758 100.086ZM79.5519 99.288C81.0499 99.638 81.7989 100.541 81.7989 101.997C81.7989 102.963 81.4419 103.705 80.7279 104.223C80.0139 104.741 78.9499 105 77.5359 105H72.5169V93.954H77.3889C78.6489 93.954 79.6359 94.199 80.3499 94.689C81.0639 95.179 81.4209 95.879 81.4209 96.789C81.4209 97.391 81.2529 97.909 80.9169 98.343C80.5949 98.763 80.1399 99.078 79.5519 99.288ZM73.9659 98.868H77.2839C78.1379 98.868 78.7889 98.707 79.2369 98.385C79.6989 98.063 79.9299 97.594 79.9299 96.978C79.9299 96.362 79.6989 95.9 79.2369 95.592C78.7889 95.284 78.1379 95.13 77.2839 95.13H73.9659V98.868ZM77.4729 103.824C78.4249 103.824 79.1389 103.67 79.6149 103.362C80.0909 103.054 80.3289 102.571 80.3289 101.913C80.3289 101.255 80.1119 100.772 79.6779 100.464C79.2439 100.142 78.5579 99.981 77.6199 99.981H73.9659V103.824H77.4729ZM93.0843 97.86C94.4703 97.874 95.5273 98.182 96.2553 98.784C96.9833 99.386 97.3473 100.254 97.3473 101.388C97.3473 102.564 96.9553 103.467 96.1713 104.097C95.3873 104.727 94.2673 105.035 92.8113 105.021L88.4433 105V93.954H89.9343V97.818L93.0843 97.86ZM99.1953 93.954H100.686V105H99.1953V93.954ZM92.7273 103.887C93.7493 103.901 94.5193 103.698 95.0373 103.278C95.5693 102.844 95.8353 102.214 95.8353 101.388C95.8353 100.576 95.5763 99.974 95.0583 99.582C94.5403 99.19 93.7633 98.987 92.7273 98.973L89.9343 98.931V103.845L92.7273 103.887Z" fill="#543838"/>
<defs>
<clipPath id="clip0">
<rect width="73" height="58" fill="white" transform="translate(15)"/>
</clipPath>
</defs>
</svg>
