<svg width="72" height="72" viewBox="0 0 72 72" fill="none" xmlns="http://www.w3.org/2000/svg">
<g clip-path="url(#clip0)">
<path d="M71.993 58.0155C71.8926 55.2305 70.7324 52.6314 68.7264 50.6971C64.7986 46.9097 61.5077 44.7232 58.3698 43.8165C54.0463 42.5669 50.0413 43.7032 46.4672 47.1937C46.4618 47.1989 46.4565 47.2043 46.4511 47.2096L42.6486 50.9837C40.2722 49.6441 35.6513 46.7028 30.6588 41.7104L30.2887 41.3405C25.2954 36.3473 22.3542 31.7256 21.0159 29.3518L24.7903 25.5492C24.7956 25.5438 24.8009 25.5385 24.8063 25.533C28.2967 21.9592 29.433 17.9544 28.1835 13.6304C27.2766 10.4926 25.0903 7.20168 21.3028 3.27389C19.3686 1.26815 16.7697 0.107996 13.9846 0.00758932C11.1979 -0.0929575 8.52374 0.877074 6.4498 2.73867L6.36908 2.81123C6.33167 2.84484 6.29511 2.87957 6.25939 2.91515C2.13078 7.04376 -0.0334376 12.8236 0.000453039 19.63C0.0582499 31.1924 6.41295 44.4151 16.9991 55.0011C18.9952 56.9973 21.2639 58.9728 23.742 60.8729C24.9746 61.8179 26.74 61.585 27.6852 60.3523C28.6304 59.1196 28.3973 57.3542 27.1646 56.409C24.8815 54.6584 22.7996 52.8466 20.9765 51.0239C11.4146 41.462 5.6758 29.7156 5.62531 19.602C5.5993 14.3601 7.17613 9.98479 10.1859 6.94364L10.2074 6.92423C12.2517 5.08921 15.3467 5.20087 17.2539 7.17848C24.5353 14.7298 24.0081 18.2947 20.7906 21.5941L15.5771 26.8467C14.7595 27.6705 14.5318 28.9119 15.0039 29.9722C15.1362 30.2695 18.3381 37.3448 26.3122 45.3189L26.6825 45.6886C34.6557 53.6619 41.7311 56.8637 42.0284 56.996C43.0884 57.4684 44.3301 57.2406 45.1537 56.423L50.4065 51.2093C53.7063 47.9917 57.2713 47.4647 64.8221 54.7462C66.7997 56.653 66.9114 59.7482 65.0768 61.7922L65.0568 61.8142C62.0406 64.7996 57.7118 66.3751 52.527 66.3751C52.4842 66.3751 52.4415 66.3751 52.3986 66.3749C48.2542 66.3542 43.4551 65.2181 38.5205 63.0896C37.0945 62.4742 35.4392 63.1318 34.8241 64.5581C34.2089 65.9845 34.8663 67.6394 36.2927 68.2546C41.9967 70.715 47.406 71.975 52.3706 71.9999C52.4233 72 52.4757 72.0001 52.5284 72.0001C59.2663 72.0001 64.9888 69.8375 69.0854 65.7409C69.121 65.7052 69.1556 65.6688 69.1892 65.6312L69.2622 65.5501C71.1237 63.4763 72.0936 60.8005 71.993 58.0155Z" fill="#543838"/>
</g>
<defs>
<clipPath id="clip0">
<rect width="72" height="72" fill="white"/>
</clipPath>
</defs>
</svg>
